<svg xmlns="http://www.w3.org/2000/svg" viewBox="0 0 354.45 77.2"><defs><style>.cls-1{fill:#ff4331;}.cls-2{fill:#0d0de6;}</style></defs><title>upfluencelogo</title><g id="Layer_2" data-name="Layer 2"><g id="Grey_Hoodie_-_Front" data-name="Grey Hoodie - Front"><rect class="cls-1" y="51.61" width="10.66" height="10.66"/><path class="cls-2" d="M89.08,40.84c0,12.4-7.51,20.75-18.39,20.75a14.75,14.75,0,0,1-14.34-9.45l-.34.09a38.68,38.68,0,0,1,.76,7.93v17H46.56V21.35H56.68a35,35,0,0,1-.76,8.1l.34.08c2.79-5.82,7.43-9.45,14.34-9.45C81.4,20.08,89.08,28.43,89.08,40.84Zm-32.65,0c0,6.75,4.56,11.3,11.22,11.3s10.63-4.3,10.63-11.3S74.15,29.53,67.65,29.53C61,29.53,56.43,34.09,56.43,40.84Z"/><path class="cls-2" d="M117.35,10h-.76c-5.15,0-7.59,1.77-7.59,7.17V19a10.29,10.29,0,0,1-.43,2.87l.17.17c.76-.59,1.86-.67,3.63-.67h5v9.19h-5c-2,0-2.87-.08-3.63-.59l-.17.17a15.82,15.82,0,0,1,.43,4.72V60.33H98.62V34.84A16.18,16.18,0,0,1,99,30.12L98.87,30c-.76.51-1.6.59-3.63.59H91.78V21.35h3.46c1.86,0,2.87.08,3.63.67l.17-.17a9.79,9.79,0,0,1-.42-2.78V17.63C98.62,5,106,.51,115.58.51h1.77Zm16.87,50.29H123.93V0h10.29Z"/><path class="cls-2" d="M180.38,60.33H170.17a32.57,32.57,0,0,1,1.18-8.86l-.42-.09c-2.62,6.75-6.75,10.21-13.59,10.21-8.26,0-13.83-5.57-13.83-16V21.35h10.63V43c0,6.07,2.78,8.94,7.51,8.94,5,0,8.35-3.79,8.35-11.64v-19h10.38Z"/><path class="cls-2" d="M226.62,40.75V43.2H202.49c-2.53,0-3.8-.17-4.9-.85l-.16.26.33.93c.93,5.82,4.81,8.94,11,8.94a16.47,16.47,0,0,0,11.56-4.64L225,55.26a23.09,23.09,0,0,1-16.28,6.33c-12.82,0-21.26-8-21.26-20.67s8.18-20.84,20.16-20.84C219.45,20.08,226.62,27.76,226.62,40.75Zm-29-3.88.17.17a8.91,8.91,0,0,1,4.22-.76h9.2c2.87,0,4.13.08,4.81.67l.17-.16c-.34-5.32-3.72-8.27-8.86-8.27C202,28.52,198.27,31.64,197.59,36.87Z"/><path class="cls-2" d="M271.59,35.27V60.33H261.21V38.22c0-5.82-2.7-8.77-7.51-8.77-5.9,0-9.62,4-9.62,12.14V60.33H233.79v-39h10.29a34.74,34.74,0,0,1-.84,8.85l.34.17c2.53-6.32,6.92-10.29,14.17-10.29C266.61,20.08,271.59,25.4,271.59,35.27Z"/><path class="cls-2" d="M278.51,40.84c0-12.32,8.78-20.76,21.52-20.76A25,25,0,0,1,313.69,24l-4.47,8.52a16,16,0,0,0-9-2.7,10.59,10.59,0,0,0-11.06,11.06c0,6.49,4.56,11,11.06,11a16,16,0,0,0,9-2.7l4.47,8.52A24.94,24.94,0,0,1,300,61.59C287.29,61.59,278.51,53.15,278.51,40.84Z"/><path class="cls-2" d="M354.45,40.75V43.2H330.32c-2.53,0-3.8-.17-4.9-.85l-.17.26.34.93c.93,5.82,4.81,8.94,11,8.94a16.47,16.47,0,0,0,11.56-4.64l4.72,7.42a23.09,23.09,0,0,1-16.28,6.33c-12.82,0-21.26-8-21.26-20.67s8.18-20.84,20.16-20.84C347.28,20.08,354.45,27.76,354.45,40.75Zm-29-3.88.17.17a8.91,8.91,0,0,1,4.22-.76H339c2.87,0,4.13.08,4.81.67l.17-.16c-.34-5.32-3.72-8.27-8.86-8.27C329.81,28.52,326.1,31.64,325.42,36.87Z"/><rect class="cls-2" y="21.37" width="10.66" height="25.09"/><path class="cls-2" d="M25.87,20.88v27a2.38,2.38,0,0,1-.05.26c-.23.77-.64,3.88-10.11,3.47V62.27h.57c9.75,0,20.29-2.5,20.29-14.39v-27Z"/></g></g></svg>